<?xml version="1.0" encoding="UTF-8" standalone="no"?>
<!-- Created with Inkscape (http://www.inkscape.org/) -->
<svg
   xmlns:dc="http://purl.org/dc/elements/1.1/"
   xmlns:cc="http://web.resource.org/cc/"
   xmlns:rdf="http://www.w3.org/1999/02/22-rdf-syntax-ns#"
   xmlns:svg="http://www.w3.org/2000/svg"
   xmlns="http://www.w3.org/2000/svg"
   xmlns:sodipodi="http://sodipodi.sourceforge.net/DTD/sodipodi-0.dtd"
   xmlns:inkscape="http://www.inkscape.org/namespaces/inkscape"
   height="121.29832"
   width="465.30167"
   id="svg2"
   sodipodi:version="0.32"
   inkscape:version="0.45.1"
   sodipodi:docbase="C:\Documents and Settings\barbara faluch\Pulpit\liczby2"
   sodipodi:docname="liczby_egipt_zad.svg"
   inkscape:output_extension="org.inkscape.output.svg.inkscape"
   version="1.0">
  <defs
     id="defs4" />
  <sodipodi:namedview
     id="base"
     pagecolor="#ffffff"
     bordercolor="#666666"
     borderopacity="1.0"
     inkscape:pageopacity="0.0"
     inkscape:pageshadow="2"
     inkscape:cx="299.96433"
     inkscape:cy="-134.60856"
     inkscape:zoom="1"
     inkscape:document-units="px"
     inkscape:current-layer="layer2"
     showgrid="false"
     inkscape:window-width="1024"
     inkscape:window-height="719"
     inkscape:window-x="0"
     inkscape:window-y="22" />
  <metadata
     id="metadata7">
    <rdf:RDF>
      <cc:Work
         rdf:about="">
        <dc:format>image/svg+xml</dc:format>
        <dc:type
           rdf:resource="http://purl.org/dc/dcmitype/StillImage" />
      </cc:Work>
    </rdf:RDF>
  </metadata>
  <g
     inkscape:groupmode="layer"
     inkscape:label="Warstwa 1"
     id="layer1"
     transform="translate(-406.9413,-634.44575)">
    <flowRoot
       xml:space="preserve"
       id="flowRoot2473"><flowRegion
         id="flowRegion2475"><rect
           id="rect2477"
           width="113"
           height="76"
           x="-701"
           y="-14.099998" /></flowRegion><flowPara
         id="flowPara2479">100 + 8 </flowPara></flowRoot>    <flowRoot
       xml:space="preserve"
       id="flowRoot2489"
       style="font-size:20px;font-weight:normal"
       transform="translate(314,2692.5)"><flowRegion
         id="flowRegion2491"><rect
           id="rect2493"
           width="156"
           height="86"
           x="-903"
           y="45.900002"
           style="font-size:20px;font-weight:normal" /></flowRegion><flowPara
         id="flowPara2495">.</flowPara></flowRoot>    <g
       id="g2521">
      <flowRoot
         transform="translate(-264,-141.76743)"
         id="flowRoot2455"
         xml:space="preserve"><flowRegion
           id="flowRegion2457"><rect
             y="238.90001"
             x="-302"
             height="245"
             width="730"
             id="rect2459" /></flowRegion><flowPara
           id="flowPara2461">1000 + 9</flowPara></flowRoot>      <flowRoot
         transform="translate(0,-1.7674346)"
         id="flowRoot2463"
         xml:space="preserve"><flowRegion
           id="flowRegion2465"><rect
             y="98.900002"
             x="-510"
             height="49"
             width="91"
             id="rect2467" /></flowRegion><flowPara
           id="flowPara2469">100+8</flowPara><flowPara
           id="flowPara2471" /></flowRoot>      <flowRoot
         transform="translate(326.22305,96.232565)"
         id="flowRoot2481"
         xml:space="preserve"><flowRegion
           id="flowRegion2483"><rect
             y="0.90000153"
             x="-792"
             height="217"
             width="226"
             id="rect2485" /></flowRegion><flowPara
           id="flowPara2487">10 + 1 = 1981</flowPara></flowRoot>      <flowRoot
         transform="translate(386.28164,41.695439)"
         style="font-size:20px;font-weight:normal"
         id="flowRoot2497"
         xml:space="preserve"><flowRegion
           id="flowRegion2499"><rect
             style="font-size:20px;font-weight:normal"
             y="45.900002"
             x="-903"
             height="86"
             width="156"
             id="rect2501" /></flowRegion><flowPara
           id="flowPara2503">.</flowPara></flowRoot>      <flowRoot
         transform="translate(428.28359,41.695439)"
         style="font-size:20px;font-weight:normal"
         id="flowRoot2505"
         xml:space="preserve"><flowRegion
           id="flowRegion2507"><rect
             style="font-size:20px;font-weight:normal"
             y="45.900002"
             x="-903"
             height="86"
             width="156"
             id="rect2509" /></flowRegion><flowPara
           id="flowPara2511">.</flowPara></flowRoot>    </g>
    <flowRoot
       xml:space="preserve"
       id="flowRoot2513"
       style="font-size:20px;font-weight:normal"
       transform="translate(33.282617,-39.304561)"><flowRegion
         id="flowRegion2515"><rect
           id="rect2517"
           width="156"
           height="86"
           x="-903"
           y="45.900002"
           style="font-size:20px;font-weight:normal" /></flowRegion><flowPara
         id="flowPara2519">.</flowPara></flowRoot>  </g>
  <g
     inkscape:groupmode="layer"
     id="layer2"
     inkscape:label="1"
     transform="translate(-406.9413,-634.44575)">
    <g
       id="g2327">
      <rect
         y="634.62061"
         x="407.11615"
         height="120.94861"
         width="464.95197"
         id="rect2259"
         style="fill:#cccccc;fill-opacity:1;stroke:#0d161c;stroke-width:0.34970695;stroke-miterlimit:4;stroke-dasharray:none;stroke-opacity:1" />
      <g
         transform="translate(241,-117)"
         id="g2292">
        <rect
           style="fill:#ffff00;fill-opacity:1;stroke:#2b0000;stroke-width:2.31284213;stroke-miterlimit:4;stroke-dasharray:none;stroke-opacity:1"
           id="rect2282"
           width="62.225395"
           height="58.632061"
           x="213.24214"
           y="775.52911" />
        <path
           style="fill:none;fill-rule:evenodd;stroke:#000000;stroke-width:2.01116705;stroke-linecap:butt;stroke-linejoin:miter;stroke-miterlimit:4;stroke-dasharray:none;stroke-opacity:1"
           d="M 225.88977,778.31207 C 242.31834,790.59091 240.88977,789.86862 240.88977,790.59091 C 240.88977,791.31319 240.88977,791.31319 240.88977,791.31319 C 224.4612,800.7029 223.74692,799.98061 223.74692,799.98061"
           id="path2274" />
        <path
           style="fill:none;fill-rule:evenodd;stroke:#000000;stroke-width:2.01116705;stroke-linecap:butt;stroke-linejoin:miter;stroke-miterlimit:4;stroke-dasharray:none;stroke-opacity:1"
           d="M 225.53622,808.64802 C 241.96479,820.92686 240.53622,820.20457 240.53622,820.92686 C 240.53622,821.64914 240.53622,821.64914 240.53622,821.64914 C 224.10765,831.03884 223.39337,830.31655 223.39337,830.31655"
           id="path2276" />
        <path
           style="fill:none;fill-rule:evenodd;stroke:#000000;stroke-width:2.01116705;stroke-linecap:butt;stroke-linejoin:miter;stroke-miterlimit:4;stroke-dasharray:none;stroke-opacity:1"
           d="M 250.28496,778.31207 C 266.71353,790.59091 265.28496,789.86862 265.28496,790.59091 C 265.28496,791.31319 265.28496,791.31319 265.28496,791.31319 C 248.85639,800.7029 248.14211,799.98061 248.14211,799.98061"
           id="path2278" />
        <path
           style="fill:none;fill-rule:evenodd;stroke:#000000;stroke-width:2.01116705;stroke-linecap:butt;stroke-linejoin:miter;stroke-miterlimit:4;stroke-dasharray:none;stroke-opacity:1"
           d="M 251.2243,809.09423 C 267.65287,821.37307 266.22429,820.65078 266.22429,821.37307 C 266.22429,822.09535 266.22429,822.09535 266.22429,822.09535 C 249.79573,831.48505 249.08145,830.76276 249.08145,830.76276"
           id="path2280" />
      </g>
      <g
         transform="translate(240,-122)"
         id="g2299">
        <rect
           style="fill:#00ff00;fill-opacity:1;stroke:#2b0000;stroke-width:5.36733055;stroke-miterlimit:4;stroke-dasharray:none;stroke-opacity:1"
           id="rect2297"
           width="299.18787"
           height="65.672501"
           x="327.24338"
           y="773.13251" />
        <path
           sodipodi:type="arc"
           style="fill:none;fill-opacity:1;stroke:#2b0000;stroke-width:2;stroke-miterlimit:4;stroke-dasharray:none;stroke-opacity:1"
           id="path2309"
           sodipodi:cx="182.14285"
           sodipodi:cy="105.21932"
           sodipodi:rx="11.428572"
           sodipodi:ry="10.714286"
           d="M 176.42463,114.49604 A 11.428572,10.714286 0 1 1 193.34634,107.33525"
           sodipodi:start="2.0947925"
           sodipodi:end="6.4819791"
           sodipodi:open="true"
           transform="matrix(1,0,0,1.0111982,170.38628,702.18486)" />
        <path
           style="fill:none;fill-rule:evenodd;stroke:#000000;stroke-width:2.01116705;stroke-linecap:butt;stroke-linejoin:miter;stroke-miterlimit:4;stroke-dasharray:none;stroke-opacity:1"
           d="M 353.27914,809.89623 C 352.47607,813.63288 356.22922,814.24081 356.77914,814.26605 C 361.23448,814.47054 363.922,813.13743 363.922,809.64343 C 363.922,809.16191 363.922,808.68038 363.922,808.19886"
           id="path2311"
           sodipodi:nodetypes="cssc" />
        <path
           sodipodi:type="arc"
           style="fill:none;fill-opacity:1;stroke:#2b0000;stroke-width:2;stroke-miterlimit:4;stroke-dasharray:none;stroke-opacity:1"
           id="path2313"
           sodipodi:cx="228"
           sodipodi:cy="119.73718"
           sodipodi:rx="6.5"
           sodipodi:ry="13.125"
           d="M 227.84435,106.61595 A 6.5,13.125 0 0 1 234.35234,122.51886"
           sodipodi:start="4.6884403"
           sodipodi:end="6.4967422"
           sodipodi:open="true"
           transform="matrix(1,0,0,1.0111982,118.54193,710.02165)" />
        <path
           style="fill:none;fill-rule:evenodd;stroke:#000000;stroke-width:2.01116705;stroke-linecap:butt;stroke-linejoin:miter;stroke-miterlimit:4;stroke-dasharray:none;stroke-opacity:1"
           d="M 376.85007,779.606 C 393.27864,791.88484 391.85007,791.16255 391.85007,791.88484 C 391.85007,792.60712 391.85007,792.60712 391.85007,792.60712 C 375.4215,801.99682 374.70722,801.27453 374.70722,801.27453"
           id="path2315" />
        <path
           style="fill:none;fill-rule:evenodd;stroke:#000000;stroke-width:2.01116705;stroke-linecap:butt;stroke-linejoin:miter;stroke-miterlimit:4;stroke-dasharray:none;stroke-opacity:1"
           d="M 376.29567,809.99456 C 392.72424,822.2734 391.29567,821.55111 391.29567,822.2734 C 391.29567,822.99567 391.29567,822.99567 391.29567,822.99567 C 374.8671,832.38538 374.15282,831.66309 374.15282,831.66309"
           id="path2317" />
        <path
           style="fill:none;fill-rule:evenodd;stroke:#000000;stroke-width:2.01116705;stroke-linecap:butt;stroke-linejoin:miter;stroke-miterlimit:4;stroke-dasharray:none;stroke-opacity:1"
           d="M 402.05303,779.40408 C 418.4816,791.68292 417.05303,790.96063 417.05303,791.68292 C 417.05303,792.4052 417.05303,792.4052 417.05303,792.4052 C 400.62446,801.7949 399.91018,801.07261 399.91018,801.07261"
           id="path2319" />
        <path
           style="fill:none;fill-rule:evenodd;stroke:#000000;stroke-width:2.01116705;stroke-linecap:butt;stroke-linejoin:miter;stroke-miterlimit:4;stroke-dasharray:none;stroke-opacity:1"
           d="M 401.29567,809.025 C 417.72424,821.30384 416.29567,820.58155 416.29567,821.30384 C 416.29567,822.02612 416.29567,822.02612 416.29567,822.02612 C 399.8671,831.41582 399.15282,830.69353 399.15282,830.69353"
           id="path2321" />
        <path
           style="fill:none;fill-rule:evenodd;stroke:#000000;stroke-width:2.01116705;stroke-linecap:butt;stroke-linejoin:miter;stroke-miterlimit:4;stroke-dasharray:none;stroke-opacity:1"
           d="M 426.75119,778.45566 C 443.17976,790.7345 441.75119,790.01221 441.75119,790.7345 C 441.75119,791.45678 441.75119,791.45678 441.75119,791.45678 C 425.32262,800.84648 424.60834,800.12419 424.60834,800.12419"
           id="path2331" />
        <path
           style="fill:none;fill-rule:evenodd;stroke:#000000;stroke-width:2.01116705;stroke-linecap:butt;stroke-linejoin:miter;stroke-miterlimit:4;stroke-dasharray:none;stroke-opacity:1"
           d="M 428.19679,808.84422 C 444.62536,821.12306 443.19679,820.40077 443.19679,821.12306 C 443.19679,821.84533 443.19679,821.84533 443.19679,821.84533 C 426.76822,831.23504 426.05394,830.51275 426.05394,830.51275"
           id="path2333" />
        <path
           style="fill:none;fill-rule:evenodd;stroke:#000000;stroke-width:2.01116705;stroke-linecap:butt;stroke-linejoin:miter;stroke-miterlimit:4;stroke-dasharray:none;stroke-opacity:1"
           d="M 451.95415,778.25374 C 468.38272,790.53258 466.95415,789.81029 466.95415,790.53258 C 466.95415,791.25486 466.95415,791.25486 466.95415,791.25486 C 450.52558,800.64456 449.8113,799.92227 449.8113,799.92227"
           id="path2335" />
        <path
           style="fill:none;fill-rule:evenodd;stroke:#000000;stroke-width:2.01116705;stroke-linecap:butt;stroke-linejoin:miter;stroke-miterlimit:4;stroke-dasharray:none;stroke-opacity:1"
           d="M 451.19679,807.87466 C 467.62536,820.1535 466.19679,819.43121 466.19679,820.1535 C 466.19679,820.87578 466.19679,820.87578 466.19679,820.87578 C 449.76822,830.26548 449.05394,829.54319 449.05394,829.54319"
           id="path2337" />
        <path
           style="fill:none;fill-rule:evenodd;stroke:#000000;stroke-width:2.01116705;stroke-linecap:butt;stroke-linejoin:miter;stroke-miterlimit:4;stroke-dasharray:none;stroke-opacity:1"
           d="M 474.07725,792.83396 C 490.50582,805.1128 489.07725,804.39051 489.07725,805.1128 C 489.07725,805.83507 489.07725,805.83507 489.07725,805.83507 C 472.64868,815.22478 471.9344,814.50249 471.9344,814.50249"
           id="path2339" />
        <path
           sodipodi:type="arc"
           style="fill:none;fill-opacity:1;stroke:#2b0000;stroke-width:2.30000019;stroke-miterlimit:4;stroke-dasharray:none;stroke-opacity:1"
           id="path2341"
           sodipodi:cx="88.928574"
           sodipodi:cy="111.29076"
           sodipodi:rx="17.5"
           sodipodi:ry="9.6428576"
           d="M 90.657047,120.88646 A 17.5,9.6428576 0 1 1 92.176305,101.81541"
           sodipodi:start="1.4718651"
           sodipodi:end="4.8990558"
           transform="matrix(0,1.0111982,-1,0,620.81993,707.37127)"
           sodipodi:open="true" />
        <path
           sodipodi:type="arc"
           style="fill:none;fill-opacity:1;stroke:#2b0000;stroke-width:2.30000019;stroke-miterlimit:4;stroke-dasharray:none;stroke-opacity:1"
           id="path2343"
           sodipodi:cx="88.928574"
           sodipodi:cy="111.29076"
           sodipodi:rx="17.5"
           sodipodi:ry="9.6428576"
           d="M 90.657047,120.88646 A 17.5,9.6428576 0 1 1 92.176305,101.81541"
           sodipodi:start="1.4718651"
           sodipodi:end="4.8990558"
           transform="matrix(0,1.0111982,-1,0,648.72699,707.01376)"
           sodipodi:open="true" />
        <path
           sodipodi:type="arc"
           style="fill:none;fill-opacity:1;stroke:#2b0000;stroke-width:2.30000019;stroke-miterlimit:4;stroke-dasharray:none;stroke-opacity:1"
           id="path2345"
           sodipodi:cx="88.928574"
           sodipodi:cy="111.29076"
           sodipodi:rx="17.5"
           sodipodi:ry="9.6428576"
           d="M 90.657047,120.88646 A 17.5,9.6428576 0 1 1 92.176305,101.81541"
           sodipodi:start="1.4718651"
           sodipodi:end="4.8990558"
           transform="matrix(0,1.0111982,-1,0,676.30415,706.65625)"
           sodipodi:open="true" />
        <path
           sodipodi:type="arc"
           style="fill:none;fill-opacity:1;stroke:#2b0000;stroke-width:2.30000019;stroke-miterlimit:4;stroke-dasharray:none;stroke-opacity:1"
           id="path2347"
           sodipodi:cx="88.928574"
           sodipodi:cy="111.29076"
           sodipodi:rx="17.5"
           sodipodi:ry="9.6428576"
           d="M 90.657047,120.88646 A 17.5,9.6428576 0 1 1 92.176305,101.81541"
           sodipodi:start="1.4718651"
           sodipodi:end="4.8990558"
           transform="matrix(0,1.0111982,-1,0,702.82066,706.20513)"
           sodipodi:open="true" />
        <path
           sodipodi:type="arc"
           style="fill:none;fill-opacity:1;stroke:#2b0000;stroke-width:2.30000019;stroke-miterlimit:4;stroke-dasharray:none;stroke-opacity:1"
           id="path2365"
           sodipodi:cx="88.928574"
           sodipodi:cy="111.29076"
           sodipodi:rx="17.5"
           sodipodi:ry="9.6428576"
           d="M 90.657047,120.88646 A 17.5,9.6428576 0 1 1 92.176305,101.81541"
           sodipodi:start="1.4718651"
           sodipodi:end="4.8990558"
           transform="matrix(0,1.0111982,-1,0,621.87431,736.55535)"
           sodipodi:open="true" />
        <path
           sodipodi:type="arc"
           style="fill:none;fill-opacity:1;stroke:#2b0000;stroke-width:2.30000019;stroke-miterlimit:4;stroke-dasharray:none;stroke-opacity:1"
           id="path2369"
           sodipodi:cx="88.928574"
           sodipodi:cy="111.29076"
           sodipodi:rx="17.5"
           sodipodi:ry="9.6428576"
           d="M 90.657047,120.88646 A 17.5,9.6428576 0 1 1 92.176305,101.81541"
           sodipodi:start="1.4718651"
           sodipodi:end="4.8990558"
           transform="matrix(0,1.0111982,-1,0,649.78137,736.19784)"
           sodipodi:open="true" />
        <path
           sodipodi:type="arc"
           style="fill:none;fill-opacity:1;stroke:#2b0000;stroke-width:2.30000019;stroke-miterlimit:4;stroke-dasharray:none;stroke-opacity:1"
           id="path2371"
           sodipodi:cx="88.928574"
           sodipodi:cy="111.29076"
           sodipodi:rx="17.5"
           sodipodi:ry="9.6428576"
           d="M 90.657047,120.88646 A 17.5,9.6428576 0 1 1 92.176305,101.81541"
           sodipodi:start="1.4718651"
           sodipodi:end="4.8990558"
           transform="matrix(0,1.0111982,-1,0,677.35853,735.84033)"
           sodipodi:open="true" />
        <path
           sodipodi:type="arc"
           style="fill:none;fill-opacity:1;stroke:#2b0000;stroke-width:2.30000019;stroke-miterlimit:4;stroke-dasharray:none;stroke-opacity:1"
           id="path2373"
           sodipodi:cx="88.928574"
           sodipodi:cy="111.29076"
           sodipodi:rx="17.5"
           sodipodi:ry="9.6428576"
           d="M 90.657047,120.88646 A 17.5,9.6428576 0 1 1 92.176305,101.81541"
           sodipodi:start="1.4718651"
           sodipodi:end="4.8990558"
           transform="matrix(0,1.0111982,-1,0,703.87504,735.38921)"
           sodipodi:open="true" />
        <path
           style="fill:none;fill-rule:evenodd;stroke:#000000;stroke-width:2.01116705;stroke-linecap:butt;stroke-linejoin:miter;stroke-miterlimit:4;stroke-dasharray:none;stroke-opacity:1"
           d="M 615.22893,798.91302 C 615.22893,799.15377 615.22893,799.39454 615.22893,799.6353 C 615.22893,805.13269 614.51464,810.70234 614.51464,816.24784 C 614.51464,816.58833 614.99083,815.76631 615.22893,815.52556"
           id="path2375" />
      </g>
      <text
         id="text2231"
         y="741.74493"
         x="418.94214"
         style="font-size:14px;font-style:normal;font-weight:normal;opacity:1;color:#000000;fill:#000000;fill-opacity:1;fill-rule:nonzero;stroke:none;stroke-width:1;stroke-linecap:butt;stroke-linejoin:miter;marker:none;marker-start:none;marker-mid:none;marker-end:none;stroke-miterlimit:4;stroke-dasharray:none;stroke-dashoffset:0;stroke-opacity:1;visibility:visible;display:inline;overflow:visible;enable-background:accumulate;font-family:Comic Sans MS"
         xml:space="preserve"><tspan
           y="741.74493"
           x="418.94214"
           id="tspan2233"
           sodipodi:role="line">100+100+100+100=400</tspan></text>
      <text
         id="text2323"
         y="742.74493"
         x="659.94214"
         style="font-size:14px;font-style:normal;font-weight:normal;opacity:1;color:#000000;fill:#000000;fill-opacity:1;fill-rule:nonzero;stroke:none;stroke-width:1;stroke-linecap:butt;stroke-linejoin:miter;marker:none;marker-start:none;marker-mid:none;marker-end:none;stroke-miterlimit:4;stroke-dasharray:none;stroke-dashoffset:0;stroke-opacity:1;visibility:visible;display:inline;overflow:visible;enable-background:accumulate;font-family:Comic Sans MS"
         xml:space="preserve"><tspan
           y="742.74493"
           x="659.94214"
           id="tspan2325"
           sodipodi:role="line">1000+900+80+1=1981</tspan></text>
    </g>
  </g>
</svg>
